HIERARCHY
ROOT Hips
{
    OFFSET 0.000000 0.000000 0.000000
    CHANNELS 6 Xposition Yposition Zposition Zrotation Xrotation Yrotation
    JOINT Spine
    {
        OFFSET -0.000000 7.236184 0.000000
        CHANNELS 3 Zrotation Xrotation Yrotation
        JOINT Spine1
        {
            OFFSET -0.000000 20.420147 0.000000
            CHANNELS 3 Zrotation Xrotation Yrotation
            JOINT Neck
            {
                OFFSET -0.000000 20.336288 1.848754
                CHANNELS 3 Zrotation Xrotation Yrotation
                JOINT Head
                {
                    OFFSET -0.000000 12.354461 -1.764923
                    CHANNELS 3 Zrotation Xrotation Yrotation
                    End Site
                    {
                        OFFSET -0.000000 22.061537 0.000000
                    }
                }
            }
            JOINT LeftShoulder
            {
                OFFSET 3.573296 18.396038 -0.314103
                CHANNELS 3 Zrotation Xrotation Yrotation
                JOINT LeftArm
                {
                    OFFSET 10.880760 0.000000 0.000000
                    CHANNELS 3 Zrotation Xrotation Yrotation
                    JOINT LeftForeArm
                    {
                        OFFSET 27.185530 0.000000 0.000000
                        CHANNELS 3 Zrotation Xrotation Yrotation
                        JOINT LeftHand
                        {
                            OFFSET 27.825975 0.000000 0.000000
                            CHANNELS 3 Zrotation Xrotation Yrotation
                            End Site
                            {
                                OFFSET 13.236923 0.000000 0.000000
                            }
                        }
                    }
                }
            }
            JOINT RightShoulder
            {
                OFFSET -3.474926 18.396038 -0.314103
                CHANNELS 3 Zrotation Xrotation Yrotation
                JOINT RightArm
                {
                    OFFSET -10.880760 0.000000 0.000000
                    CHANNELS 3 Zrotation Xrotation Yrotation
                    JOINT RightForeArm
                    {
                        OFFSET -27.185530 0.000000 0.000000
                        CHANNELS 3 Zrotation Xrotation Yrotation
                        JOINT RightHand
                        {
                            OFFSET -27.825975 0.000000 0.000000
                            CHANNELS 3 Zrotation Xrotation Yrotation
                            End Site
                            {
                                OFFSET -13.236923 0.000000 0.000000
                            }
                        }
                    }
                }
            }
        }
    }
    JOINT LeftUpLeg
    {
        OFFSET 8.824615 0.000000 0.000000
        CHANNELS 3 Zrotation Xrotation Yrotation
        JOINT LeftLeg
        {
            OFFSET -0.000000 -35.111282 0.000000
            CHANNELS 3 Zrotation Xrotation Yrotation
            JOINT LeftFoot
            {
                OFFSET -0.000000 -42.324711 0.000000
                CHANNELS 3 Zrotation Xrotation Yrotation
                JOINT LeftToeBase
                {
                    OFFSET -0.000000 -5.735999 13.236923
                    CHANNELS 3 Zrotation Xrotation Yrotation
                    End Site
                    {
                        OFFSET -0.000000 0.000000 3.529846
                    }
                }
            }
        }
    }
    JOINT RightUpLeg
    {
        OFFSET -8.824615 0.000000 0.000000
        CHANNELS 3 Zrotation Xrotation Yrotation
        JOINT RightLeg
        {
            OFFSET -0.000000 -35.111282 0.000000
            CHANNELS 3 Zrotation Xrotation Yrotation
            JOINT RightFoot
            {
                OFFSET -0.000000 -42.324711 0.000000
                CHANNELS 3 Zrotation Xrotation Yrotation
                JOINT RightToeBase
                {
                    OFFSET -0.000000 -5.735999 13.236923
                    CHANNELS 3 Zrotation Xrotation Yrotation
                    End Site
                    {
                        OFFSET -0.000000 0.000000 3.529846
                    }
                }
            }
        }
    }
}
MOTION
Frames:    13
Frame Time:    0.008333
16.555529    81.275970    113.100723    -2.535499    -15.425195    -174.395523    -3.091756    -11.464277    0.487519    -0.203880    8.623244    0.813286    1.593508    4.460118    -6.082588    17.123848    -6.794536    -3.057889    3.344626    6.778172    -10.902932    -31.542595    24.468336    -60.964222    12.471318    -1.381961    -17.720272    21.973305    -0.095029    -3.422906    -1.953041    10.061118    8.613514    22.003134    21.940992    56.397285    -21.425905    -6.947850    33.819969    -22.481464    -1.287322    4.627668    17.544106    -30.486235    -2.040324    1.514611    30.845234    5.715735    -11.406013    3.332593    -18.191998    -1.512775    -3.705392    1.688441    -16.467794    -24.576839    -5.920581    2.826492    26.760981    4.290864    5.741879    -12.505766    -15.032148    -0.976705    0.031188    1.056334    
16.058598    81.110481    113.143448    -2.325823    -15.335217    -174.521927    -3.064497    -11.420850    0.489587    -0.050061    8.624143    0.799841    1.651355    4.414982    -6.070664    17.147356    -6.767581    -3.051549    3.480060    6.491370    -11.328142    -30.952660    24.031694    -61.903271    12.113076    -1.415799    -16.933231    21.884581    -0.254500    -3.352554    -2.088569    9.924685    9.005304    21.750092    21.298761    57.308266    -21.097532    -6.628123    32.507320    -21.943127    -1.303902    4.579278    17.429062    -30.455355    -2.037706    1.616814    30.812027    5.713029    -11.775047    2.812342    -18.072813    -1.525756    -3.901181    1.703571    -16.595949    -24.759937    -6.029688    2.723672    27.141726    4.415068    6.078701    -12.550666    -14.884915    -0.961419    -0.012530    1.039864    
15.544017    80.938431    113.184486    -2.111345    -15.242072    -174.654510    -3.032735    -11.373760    0.496172    0.103290    8.630656    0.790471    1.720016    4.365731    -6.065136    17.174177    -6.754458    -3.050522    3.610933    6.224665    -11.737851    -30.415472    23.579508    -62.804306    11.762589    -1.434413    -16.169609    21.802574    -0.390960    -3.286410    -2.215213    9.811000    9.372462    21.564087    20.655684    58.155151    -20.780476    -6.324894    31.234322    -21.413757    -1.315092    4.522049    17.304934    -30.454359    -1.986064    1.753176    30.911337    5.668338    -12.176906    2.211004    -17.969755    -1.531504    -4.113086    1.710691    -16.731970    -24.935760    -6.118084    2.629007    27.513569    4.534441    6.426311    -12.588734    -14.747828    -0.948725    -0.060929    1.026203    
15.014344    80.762260    113.223686    -1.892688    -15.148714    -174.787842    -2.996168    -11.325889    0.506394    0.254656    8.643632    0.784307    1.800460    4.311781    -6.066762    17.203585    -6.753915    -3.056041    3.736572    5.980585    -12.128612    -29.935183    23.117210    -63.664341    11.422765    -1.434783    -15.437373    21.729174    -0.501101    -3.226532    -2.331269    9.721191    9.711107    21.448898    20.015240    58.927074    -20.478647    -6.041048    30.020229    -20.902033    -1.320346    4.457522    17.173027    -30.483713    -1.893642    1.916523    31.125502    5.585402    -12.598756    1.534928    -17.884315    -1.528228    -4.317657    1.707710    -16.876528    -25.099195    -6.186390    2.545103    27.865383    4.644096    6.783148    -12.616462    -14.620752    -0.938066    -0.114043    1.014747    
14.469197    80.583572    113.261154    -1.669260    -15.057794    -174.917572    -2.954905    -11.280621    0.519184    0.404351    8.664366    0.780396    1.893622    4.251842    -6.076164    17.234634    -6.763382    -3.069472    3.858097    5.759689    -12.500297    -29.511112    22.648832    -64.486160    11.094729    -1.417099    -14.739728    21.665947    -0.583761    -3.174469    -2.436560    9.654362    10.019668    21.405298    19.379282    59.619423    -20.195339    -5.777369    28.875505    -20.412886    -1.319957    4.387032    17.033897    -30.543621    -1.766960    2.102304    31.435781    5.464136    -13.028524    0.789156    -17.816191    -1.514376    -4.491369    1.692805    -17.030666    -25.247023    -6.238524    2.471908    28.189405    4.742779    7.149557    -12.630847    -14.502260    -0.928537    -0.171748    1.004519    
13.911496    80.405121    113.296844    -1.441804    -14.972622    -175.039169    -2.909884    -11.241179    0.533345    0.552733    8.693240    0.777726    1.999221    4.185017    -6.093692    17.266357    -6.780195    -3.091805    3.975346    5.562923    -12.849890    -29.141619    22.183399    -65.268684    10.783024    -1.380968    -14.083786    21.613535    -0.642690    -3.130418    -2.530658    9.608973    10.294469    21.432064    18.754549    60.225853    -19.934473    -5.535862    27.815546    -19.954090    -1.314001    4.313312    16.888762    -30.633305    -1.611888    2.306710    31.821026    5.302897    -13.451152    -0.014880    -17.764608    -1.488934    -4.615505    1.664770    -17.194002    -25.375818    -6.278178    2.408929    28.476145    4.828796    7.524010    -12.628477    -14.391005    -0.919387    -0.234309    0.994706    
13.338348    80.227837    113.331009    -1.208906    -14.895244    -175.150024    -2.862249    -11.209639    0.548035    0.702483    8.729895    0.775326    2.117846    4.110539    -6.119867    17.297991    -6.801885    -3.124185    4.089952    5.388781    -13.178207    -28.819771    21.726816    -66.018776    10.488376    -1.331376    -13.470328    21.571592    -0.679736    -3.094992    -2.614136    9.582317    10.535069    21.526812    18.143269    60.746250    -19.698038    -5.316052    26.843826    -19.527731    -1.303204    4.238633    16.737055    -30.752190    -1.432781    2.527675    32.265301    5.100328    -13.856340    -0.872436    -17.729073    -1.451609    -4.680989    1.623247    -17.367439    -25.483381    -6.308263    2.354782    28.719397    4.900156    7.909166    -12.605960    -14.283467    -0.910059    -0.301560    0.984705    
12.750077    80.053932    113.363503    -0.971197    -14.827456    -175.248001    -2.814070    -11.187422    0.562590    0.855716    8.773149    0.772645    2.249002    4.028385    -6.155080    17.328787    -6.826079    -3.167548    4.202291    5.236883    -13.484183    -28.538738    21.289200    -66.737373    10.214807    -1.273397    -12.904964    21.539375    -0.699022    -3.068197    -2.687099    9.571702    10.739930    21.685757    17.553226    61.175915    -19.490444    -5.119741    25.970037    -19.138479    -1.288772    4.166010    16.577919    -30.897602    -1.235486    2.762014    32.751640    4.859771    -14.233986    -1.772162    -17.710804    -1.403260    -4.684499    1.569193    -17.551252    -25.565857    -6.329122    2.309309    28.910564    4.953088    8.305919    -12.559383    -14.176595    -0.899825    -0.374244    0.973729    
12.151443    79.886726    113.393738    -0.731807    -14.770764    -175.331055    -2.768373    -11.175347    0.576533    1.013774    8.821026    0.769263    2.390232    3.940033    -6.199429    17.358263    -6.850893    -3.222105    4.312205    5.107458    -13.764535    -28.292427    20.884291    -67.420448    9.968783    -1.212240    -12.397147    21.515486    -0.706467    -3.049418    -2.749874    9.574217    10.906519    21.902502    16.996586    61.508652    -19.316921    -4.949415    25.208218    -18.792902    -1.271543    4.099224    16.410614    -31.064425    -1.028410    3.004830    33.261497    4.587232    -14.575159    -2.695986    -17.708811    -1.346461    -4.630048    1.505519    -17.744810    -25.618425    -6.339998    2.273209    29.040325    4.982479    8.712409    -12.485220    -14.067086    -0.888414    -0.452598    0.961485    
11.539165    79.727257    113.421539    -0.490661    -14.725483    -175.399185    -2.727048    -11.173567    0.589809    1.179378    8.871574    0.765185    2.540691    3.846582    -6.253721    17.387184    -6.875378    -3.288599    4.420250    4.998519    -14.020513    -28.070789    20.520199    -68.071693    9.752801    -1.152635    -11.949213    21.498947    -0.707029    -3.038220    -2.802679    9.587584    11.034914    22.171597    16.478123    61.742622    -19.180546    -4.805244    24.561440    -18.492125    -1.252517    4.040768    16.231833    -31.249424    -0.817543    3.254833    33.785763    4.285597    -14.878306    -3.638887    -17.720161    -1.283576    -4.525778    1.434914    -17.950312    -25.637005    -6.338168    2.248443    29.101608    4.982768    9.131742    -12.378697    -13.950817    -0.875110    -0.537968    0.947199    
10.916615    79.578117    113.446388    -0.249932    -14.692434    -175.451935    -2.691801    -11.182026    0.602430    1.353298    8.922131    0.760312    2.696291    3.750938    -6.318342    17.418468    -6.899428    -3.366363    4.525877    4.909032    -14.249722    -27.866592    20.208775    -68.687248    9.571527    -1.100223    -11.568808    21.489773    -0.704765    -3.034732    -2.845046    9.610088    11.123401    22.484224    16.007271    61.874470    -19.085392    -4.688622    24.039091    -18.240284    -1.232123    3.993587    16.040197    -31.447535    -0.611180    3.507981    34.311073    3.961949    -15.139859    -4.585716    -17.740803    -1.217957    -4.382006    1.361177    -18.167339    -25.617537    -6.320589    2.237320    29.086748    4.948431    9.562289    -12.235378    -13.824472    -0.859040    -0.631787    0.929926    
10.280206    79.440125    113.468170    -0.008517    -14.671984    -175.489960    -2.662620    -11.200278    0.614409    1.536831    8.969618    0.754974    2.853877    3.655516    -6.394573    17.458006    -6.923242    -3.455102    4.629613    4.837377    -14.452230    -27.671423    19.956964    -69.268951    9.426772    -1.057389    -11.259233    21.489872    -0.703004    -3.039300    -2.875690    9.641396    11.171093    22.833736    15.587635    61.902744    -19.033812    -4.599391    23.643944    -18.038904    -1.210502    3.959783    15.832880    -31.656158    -0.414452    3.762710    34.831100    3.618927    -15.360223    -5.532515    -17.764517    -1.151634    -4.208819    1.286622    -18.397060    -25.556597    -6.284419    2.241053    28.989157    4.874494    10.007272    -12.048606    -13.682188    -0.838500    -0.737384    0.907824    
9.639316    79.316544    113.486374    0.230354    -14.664709    -175.513779    -2.638892    -11.227615    0.625933    1.726493    9.010783    0.749317    3.006868    3.564175    -6.481893    17.511641    -6.946611    -3.552207    4.729503    4.782900    -14.624097    -27.481771    19.774626    -69.806137    9.322309    -1.025757    -11.029301    21.501783    -0.703673    -3.052383    -2.891349    9.681580    11.176487    23.205391    15.228699    61.828484    -19.028517    -4.538251    23.383232    -17.891947    -1.187855    3.941111    15.612239    -31.868597    -0.235720    4.011643    35.330139    3.266655    -15.537113    -6.457747    -17.783157    -1.086153    -4.017371    1.213016    -18.635134    -25.453558    -6.228085    2.259730    28.806740    4.759183    10.459890    -11.815592    -13.521000    -0.811554    -0.856118    0.878796    
